<?xml version="1.0" encoding="UTF-8" standalone="no"?>
<!-- Created with Inkscape (http://www.inkscape.org/) -->

<svg
   width="40"
   height="40"
   viewBox="0 0 10.583333 10.583333"
   version="1.1"
   id="svg1"
   xmlns="http://www.w3.org/2000/svg"
   xmlns:svg="http://www.w3.org/2000/svg">
  <defs
     id="defs1" />
  <g
     id="layer1">
    <path
       d="m 5.2665684,7.1930087 c 0.1906478,0 0.3612125,-0.1605356 0.3612125,-0.3612041 0,-0.6321071 0.2608768,-1.0234131 0.8628802,-1.2441507 1.0434786,-0.3913032 1.6454857,-1.1137138 1.6454857,-2.0267604 0,-1.2240809 -1.2240806,-2.1872941 -2.7692363,-2.1872941 -1.48495,0 -2.5183987,0.6923084 -2.9097019,1.9464939 -0.010022,0.040134 -0.010022,0.070235 -0.010022,0.110368 0,0.200669 0.1605348,0.3612042 0.3612042,0.3612042 0.1605347,0 0.3010068,-0.1103679 0.3411405,-0.2608697 0.2909815,-0.9331132 1.0434748,-1.4347865 2.2073591,-1.4347865 1.1538469,0 2.0468282,0.6622085 2.0468282,1.4648849 0,0.591977 -0.3913051,1.0635496 -1.1638806,1.3444858 -0.8829476,0.3311035 -1.3444863,0.9933116 -1.3444863,1.9264256 0,0.2006684 0.1705646,0.3612041 0.3612124,0.3612041 z M 5.2565474,9.209734 c 0.3010031,0 0.5418061,-0.2408021 0.5418061,-0.5418061 0,-0.2909694 -0.2407947,-0.5418061 -0.5418061,-0.5418061 -0.2909816,0 -0.5418062,0.2508357 -0.5418062,0.5418061 0,0.301004 0.2508553,0.5418061 0.5418062,0.5418061 z"
       id="text1"
       style="font-size:385.059px;font-family:'Kikai Chokoku JIS';-inkscape-font-specification:'Kikai Chokoku JIS';fill:#03045e;stroke-width:0.987557;stroke-linecap:round;paint-order:fill markers stroke"
       aria-label="?" />
  </g>
</svg>
